<mxfile host="65bd71144e">
    <diagram id="KOlbnavyBaLmCLDpKu0O" name="Page-1">
        <mxGraphModel dx="2414" dy="1150" grid="1" gridSize="10" guides="1" tooltips="1" connect="1" arrows="1" fold="1" page="0" pageScale="1" pageWidth="850" pageHeight="1100" background="none" math="0" shadow="0">
            <root>
                <mxCell id="0"/>
                <mxCell id="1" parent="0"/>
                <mxCell id="22" value="" style="whiteSpace=wrap;html=1;aspect=fixed;rounded=0;connectable=0;" parent="1" vertex="1">
                    <mxGeometry x="40" y="240" width="240" height="240" as="geometry"/>
                </mxCell>
                <mxCell id="26" value="" style="whiteSpace=wrap;html=1;aspect=fixed;rounded=0;connectable=0;" parent="1" vertex="1">
                    <mxGeometry x="520" y="720" width="240" height="240" as="geometry"/>
                </mxCell>
                <mxCell id="27" value="" style="whiteSpace=wrap;html=1;aspect=fixed;rounded=0;connectable=0;" parent="1" vertex="1">
                    <mxGeometry x="280" y="720" width="240" height="240" as="geometry"/>
                </mxCell>
                <mxCell id="28" value="" style="whiteSpace=wrap;html=1;aspect=fixed;rounded=0;connectable=0;" parent="1" vertex="1">
                    <mxGeometry x="40" y="720" width="240" height="240" as="geometry"/>
                </mxCell>
                <mxCell id="29" value="" style="whiteSpace=wrap;html=1;aspect=fixed;rounded=0;connectable=0;" parent="1" vertex="1">
                    <mxGeometry x="40" y="480" width="240" height="240" as="geometry"/>
                </mxCell>
                <mxCell id="30" value="" style="whiteSpace=wrap;html=1;aspect=fixed;rounded=0;connectable=0;" parent="1" vertex="1">
                    <mxGeometry x="280" y="480" width="240" height="240" as="geometry"/>
                </mxCell>
                <mxCell id="31" value="" style="whiteSpace=wrap;html=1;aspect=fixed;rounded=0;connectable=0;" parent="1" vertex="1">
                    <mxGeometry x="520" y="480" width="240" height="240" as="geometry"/>
                </mxCell>
                <mxCell id="32" value="" style="whiteSpace=wrap;html=1;aspect=fixed;rounded=0;connectable=0;" parent="1" vertex="1">
                    <mxGeometry x="520" y="240" width="240" height="240" as="geometry"/>
                </mxCell>
                <mxCell id="33" value="" style="whiteSpace=wrap;html=1;aspect=fixed;rounded=0;connectable=0;" parent="1" vertex="1">
                    <mxGeometry x="280" y="240" width="240" height="240" as="geometry"/>
                </mxCell>
                <mxCell id="34" value="" style="pointerEvents=1;verticalLabelPosition=bottom;shadow=0;dashed=0;align=center;html=1;verticalAlign=top;shape=mxgraph.electrical.electro-mechanical.switch_disconnector;" parent="1" vertex="1">
                    <mxGeometry x="122.5" y="350.5" width="75" height="19" as="geometry"/>
                </mxCell>
                <mxCell id="41" value="" style="pointerEvents=1;verticalLabelPosition=bottom;shadow=0;dashed=0;align=center;html=1;verticalAlign=top;shape=mxgraph.electrical.electro-mechanical.switch_disconnector;" parent="1" vertex="1">
                    <mxGeometry x="602.5" y="350.5" width="75" height="19" as="geometry"/>
                </mxCell>
                <mxCell id="42" value="" style="pointerEvents=1;verticalLabelPosition=bottom;shadow=0;dashed=0;align=center;html=1;verticalAlign=top;shape=mxgraph.electrical.electro-mechanical.switch_disconnector;" parent="1" vertex="1">
                    <mxGeometry x="362.5" y="350.5" width="75" height="19" as="geometry"/>
                </mxCell>
                <mxCell id="43" value="" style="endArrow=none;html=1;entryX=0;entryY=0.845;entryDx=0;entryDy=0;entryPerimeter=0;" parent="1" target="34" edge="1">
                    <mxGeometry width="50" height="50" relative="1" as="geometry">
                        <mxPoint x="-80" y="367" as="sourcePoint"/>
                        <mxPoint x="440" y="610" as="targetPoint"/>
                    </mxGeometry>
                </mxCell>
                <mxCell id="44" value="" style="endArrow=none;html=1;entryX=0;entryY=0.845;entryDx=0;entryDy=0;entryPerimeter=0;exitX=0;exitY=0.845;exitDx=0;exitDy=0;exitPerimeter=0;" parent="1" source="41" target="34" edge="1">
                    <mxGeometry width="50" height="50" relative="1" as="geometry">
                        <mxPoint x="660" y="280" as="sourcePoint"/>
                        <mxPoint x="430" y="430" as="targetPoint"/>
                        <Array as="points">
                            <mxPoint x="603" y="280"/>
                            <mxPoint x="123" y="280"/>
                        </Array>
                    </mxGeometry>
                </mxCell>
                <mxCell id="45" value="" style="endArrow=none;html=1;entryX=0;entryY=0.845;entryDx=0;entryDy=0;entryPerimeter=0;" parent="1" target="42" edge="1">
                    <mxGeometry width="50" height="50" relative="1" as="geometry">
                        <mxPoint x="290" y="280" as="sourcePoint"/>
                        <mxPoint x="410" y="400" as="targetPoint"/>
                        <Array as="points">
                            <mxPoint x="363" y="280"/>
                        </Array>
                    </mxGeometry>
                </mxCell>
                <mxCell id="46" value="" style="endArrow=none;html=1;entryX=1;entryY=0.845;entryDx=0;entryDy=0;entryPerimeter=0;" parent="1" target="34" edge="1">
                    <mxGeometry width="50" height="50" relative="1" as="geometry">
                        <mxPoint x="198" y="510" as="sourcePoint"/>
                        <mxPoint x="430" y="520" as="targetPoint"/>
                    </mxGeometry>
                </mxCell>
                <mxCell id="47" value="" style="pointerEvents=1;verticalLabelPosition=bottom;shadow=0;dashed=0;align=center;html=1;verticalAlign=top;shape=mxgraph.electrical.electro-mechanical.switch_disconnector;" parent="1" vertex="1">
                    <mxGeometry x="122.5" y="590.5" width="75" height="19" as="geometry"/>
                </mxCell>
                <mxCell id="48" value="" style="pointerEvents=1;verticalLabelPosition=bottom;shadow=0;dashed=0;align=center;html=1;verticalAlign=top;shape=mxgraph.electrical.electro-mechanical.switch_disconnector;" parent="1" vertex="1">
                    <mxGeometry x="602.5" y="590.5" width="75" height="19" as="geometry"/>
                </mxCell>
                <mxCell id="49" value="" style="pointerEvents=1;verticalLabelPosition=bottom;shadow=0;dashed=0;align=center;html=1;verticalAlign=top;shape=mxgraph.electrical.electro-mechanical.switch_disconnector;" parent="1" vertex="1">
                    <mxGeometry x="362.5" y="590.5" width="75" height="19" as="geometry"/>
                </mxCell>
                <mxCell id="50" value="" style="endArrow=none;html=1;entryX=0;entryY=0.845;entryDx=0;entryDy=0;entryPerimeter=0;" parent="1" target="47" edge="1">
                    <mxGeometry width="50" height="50" relative="1" as="geometry">
                        <mxPoint x="-80" y="607" as="sourcePoint"/>
                        <mxPoint x="440" y="850" as="targetPoint"/>
                    </mxGeometry>
                </mxCell>
                <mxCell id="51" value="" style="endArrow=none;html=1;entryX=0;entryY=0.845;entryDx=0;entryDy=0;entryPerimeter=0;exitX=0;exitY=0.845;exitDx=0;exitDy=0;exitPerimeter=0;" parent="1" source="48" target="47" edge="1">
                    <mxGeometry width="50" height="50" relative="1" as="geometry">
                        <mxPoint x="660" y="520" as="sourcePoint"/>
                        <mxPoint x="430" y="670" as="targetPoint"/>
                        <Array as="points">
                            <mxPoint x="603" y="520"/>
                            <mxPoint x="123" y="520"/>
                        </Array>
                    </mxGeometry>
                </mxCell>
                <mxCell id="52" value="" style="endArrow=none;html=1;entryX=0;entryY=0.845;entryDx=0;entryDy=0;entryPerimeter=0;" parent="1" target="49" edge="1">
                    <mxGeometry width="50" height="50" relative="1" as="geometry">
                        <mxPoint x="290" y="520" as="sourcePoint"/>
                        <mxPoint x="410" y="640" as="targetPoint"/>
                        <Array as="points">
                            <mxPoint x="363" y="520"/>
                        </Array>
                    </mxGeometry>
                </mxCell>
                <mxCell id="54" value="" style="endArrow=none;html=1;entryX=0;entryY=0.845;entryDx=0;entryDy=0;entryPerimeter=0;" parent="1" target="55" edge="1">
                    <mxGeometry width="50" height="50" relative="1" as="geometry">
                        <mxPoint x="-80" y="607" as="sourcePoint"/>
                        <mxPoint x="440" y="850" as="targetPoint"/>
                    </mxGeometry>
                </mxCell>
                <mxCell id="55" value="" style="pointerEvents=1;verticalLabelPosition=bottom;shadow=0;dashed=0;align=center;html=1;verticalAlign=top;shape=mxgraph.electrical.electro-mechanical.switch_disconnector;" parent="1" vertex="1">
                    <mxGeometry x="122.5" y="590.5" width="75" height="19" as="geometry"/>
                </mxCell>
                <mxCell id="56" value="" style="pointerEvents=1;verticalLabelPosition=bottom;shadow=0;dashed=0;align=center;html=1;verticalAlign=top;shape=mxgraph.electrical.electro-mechanical.switch_disconnector;" parent="1" vertex="1">
                    <mxGeometry x="602.5" y="830.5" width="75" height="19" as="geometry"/>
                </mxCell>
                <mxCell id="57" value="" style="pointerEvents=1;verticalLabelPosition=bottom;shadow=0;dashed=0;align=center;html=1;verticalAlign=top;shape=mxgraph.electrical.electro-mechanical.switch_disconnector;" parent="1" vertex="1">
                    <mxGeometry x="362.5" y="830.5" width="75" height="19" as="geometry"/>
                </mxCell>
                <mxCell id="58" value="" style="endArrow=none;html=1;entryX=0;entryY=0.845;entryDx=0;entryDy=0;entryPerimeter=0;exitX=0;exitY=0.845;exitDx=0;exitDy=0;exitPerimeter=0;" parent="1" source="56" edge="1">
                    <mxGeometry width="50" height="50" relative="1" as="geometry">
                        <mxPoint x="660" y="760" as="sourcePoint"/>
                        <mxPoint x="122.5" y="846.5550000000003" as="targetPoint"/>
                        <Array as="points">
                            <mxPoint x="603" y="760"/>
                            <mxPoint x="123" y="760"/>
                        </Array>
                    </mxGeometry>
                </mxCell>
                <mxCell id="59" value="" style="endArrow=none;html=1;entryX=0;entryY=0.845;entryDx=0;entryDy=0;entryPerimeter=0;" parent="1" target="57" edge="1">
                    <mxGeometry width="50" height="50" relative="1" as="geometry">
                        <mxPoint x="290" y="759.9999999999998" as="sourcePoint"/>
                        <mxPoint x="410" y="880" as="targetPoint"/>
                        <Array as="points">
                            <mxPoint x="363" y="760"/>
                        </Array>
                    </mxGeometry>
                </mxCell>
                <mxCell id="60" value="" style="endArrow=none;html=1;entryX=0;entryY=0.845;entryDx=0;entryDy=0;entryPerimeter=0;" parent="1" target="61" edge="1">
                    <mxGeometry width="50" height="50" relative="1" as="geometry">
                        <mxPoint x="-80" y="847" as="sourcePoint"/>
                        <mxPoint x="440" y="1090" as="targetPoint"/>
                    </mxGeometry>
                </mxCell>
                <mxCell id="61" value="" style="pointerEvents=1;verticalLabelPosition=bottom;shadow=0;dashed=0;align=center;html=1;verticalAlign=top;shape=mxgraph.electrical.electro-mechanical.switch_disconnector;" parent="1" vertex="1">
                    <mxGeometry x="122.5" y="830.5" width="75" height="19" as="geometry"/>
                </mxCell>
                <mxCell id="62" value="" style="endArrow=none;html=1;exitX=1;exitY=0.845;exitDx=0;exitDy=0;exitPerimeter=0;" parent="1" source="55" edge="1">
                    <mxGeometry width="50" height="50" relative="1" as="geometry">
                        <mxPoint x="410" y="680" as="sourcePoint"/>
                        <mxPoint x="198" y="530" as="targetPoint"/>
                    </mxGeometry>
                </mxCell>
                <mxCell id="63" value="" style="endArrow=none;html=1;entryX=1;entryY=0.845;entryDx=0;entryDy=0;entryPerimeter=0;" parent="1" edge="1">
                    <mxGeometry width="50" height="50" relative="1" as="geometry">
                        <mxPoint x="438" y="513.44" as="sourcePoint"/>
                        <mxPoint x="437.5" y="369.99500000000006" as="targetPoint"/>
                    </mxGeometry>
                </mxCell>
                <mxCell id="64" value="" style="endArrow=none;html=1;exitX=1;exitY=0.845;exitDx=0;exitDy=0;exitPerimeter=0;" parent="1" source="49" edge="1">
                    <mxGeometry width="50" height="50" relative="1" as="geometry">
                        <mxPoint x="460" y="600" as="sourcePoint"/>
                        <mxPoint x="438" y="530" as="targetPoint"/>
                    </mxGeometry>
                </mxCell>
                <mxCell id="75" value="" style="endArrow=none;html=1;entryX=1;entryY=0.845;entryDx=0;entryDy=0;entryPerimeter=0;" parent="1" target="55" edge="1">
                    <mxGeometry width="50" height="50" relative="1" as="geometry">
                        <mxPoint x="198" y="750" as="sourcePoint"/>
                        <mxPoint x="240" y="610" as="targetPoint"/>
                    </mxGeometry>
                </mxCell>
                <mxCell id="76" value="" style="endArrow=none;html=1;exitX=1;exitY=0.845;exitDx=0;exitDy=0;exitPerimeter=0;" parent="1" source="61" edge="1">
                    <mxGeometry width="50" height="50" relative="1" as="geometry">
                        <mxPoint x="240" y="840" as="sourcePoint"/>
                        <mxPoint x="197" y="770" as="targetPoint"/>
                    </mxGeometry>
                </mxCell>
                <mxCell id="77" value="" style="endArrow=none;html=1;entryX=1;entryY=0.845;entryDx=0;entryDy=0;entryPerimeter=0;" parent="1" target="49" edge="1">
                    <mxGeometry width="50" height="50" relative="1" as="geometry">
                        <mxPoint x="437" y="750" as="sourcePoint"/>
                        <mxPoint x="470" y="630" as="targetPoint"/>
                    </mxGeometry>
                </mxCell>
                <mxCell id="78" value="" style="endArrow=none;html=1;exitX=1;exitY=0.845;exitDx=0;exitDy=0;exitPerimeter=0;" parent="1" source="57" edge="1">
                    <mxGeometry width="50" height="50" relative="1" as="geometry">
                        <mxPoint x="470" y="840" as="sourcePoint"/>
                        <mxPoint x="437" y="770" as="targetPoint"/>
                    </mxGeometry>
                </mxCell>
                <mxCell id="81" value="" style="endArrow=none;html=1;entryX=1;entryY=0.845;entryDx=0;entryDy=0;entryPerimeter=0;exitX=1;exitY=0.845;exitDx=0;exitDy=0;exitPerimeter=0;" parent="1" source="56" target="41" edge="1">
                    <mxGeometry width="50" height="50" relative="1" as="geometry">
                        <mxPoint x="500" y="700" as="sourcePoint"/>
                        <mxPoint x="550" y="650" as="targetPoint"/>
                    </mxGeometry>
                </mxCell>
                <mxCell id="82" value="" style="endArrow=none;html=1;exitX=1;exitY=0.845;exitDx=0;exitDy=0;exitPerimeter=0;" parent="1" source="61" edge="1">
                    <mxGeometry width="50" height="50" relative="1" as="geometry">
                        <mxPoint x="450" y="750" as="sourcePoint"/>
                        <mxPoint x="198" y="1080" as="targetPoint"/>
                    </mxGeometry>
                </mxCell>
                <mxCell id="83" value="" style="endArrow=none;html=1;exitX=1;exitY=0.845;exitDx=0;exitDy=0;exitPerimeter=0;" parent="1" edge="1">
                    <mxGeometry width="50" height="50" relative="1" as="geometry">
                        <mxPoint x="437.5" y="839.9950000000003" as="sourcePoint"/>
                        <mxPoint x="438" y="1080" as="targetPoint"/>
                    </mxGeometry>
                </mxCell>
                <mxCell id="84" value="" style="endArrow=none;html=1;exitX=1;exitY=0.845;exitDx=0;exitDy=0;exitPerimeter=0;" parent="1" edge="1">
                    <mxGeometry width="50" height="50" relative="1" as="geometry">
                        <mxPoint x="677.5" y="839.9950000000003" as="sourcePoint"/>
                        <mxPoint x="678" y="1080" as="targetPoint"/>
                    </mxGeometry>
                </mxCell>
                <mxCell id="85" value="" style="rounded=0;whiteSpace=wrap;html=1;" parent="1" vertex="1">
                    <mxGeometry x="-200" y="200" width="120" height="800" as="geometry"/>
                </mxCell>
                <mxCell id="86" value="" style="rounded=0;whiteSpace=wrap;html=1;rotation=90;" parent="1" vertex="1">
                    <mxGeometry x="340" y="740" width="120" height="800" as="geometry"/>
                </mxCell>
                <mxCell id="303" value="The way that a matrix works is that each row is connected to each column through a switch. The switches that we'll be using will be the Hall Effect sensors. When a piece is over a square, the sensor will flip the switch to the closed state from the open state, and when the piece is removed the switch will open again. The microcontroller will apply a voltage to each of the rows, one at a time, and read which columns &quot;light up.&quot; This provides the position of each switch that is closed on that row. The example to the left has a piece on the top left and top right squares. The colored arrows represent current through the circuit, and would appear in the order of red, then green, and then blue." style="text;html=1;strokeColor=none;fillColor=none;align=center;verticalAlign=middle;whiteSpace=wrap;rounded=0;fontSize=20;" parent="1" vertex="1">
                    <mxGeometry x="840" y="240" width="370" height="670" as="geometry"/>
                </mxCell>
                <mxCell id="305" value="" style="ellipse;whiteSpace=wrap;html=1;aspect=fixed;" parent="1" vertex="1">
                    <mxGeometry x="140" y="330" width="80" height="80" as="geometry"/>
                </mxCell>
                <mxCell id="309" value="" style="ellipse;whiteSpace=wrap;html=1;aspect=fixed;" parent="1" vertex="1">
                    <mxGeometry x="620" y="330" width="80" height="80" as="geometry"/>
                </mxCell>
                <mxCell id="310" value="" style="endArrow=classic;html=1;fontSize=20;fillColor=#a20025;strokeColor=#6F0000;strokeWidth=3;exitX=1.004;exitY=0.185;exitDx=0;exitDy=0;exitPerimeter=0;" parent="1" source="85" target="309" edge="1">
                    <mxGeometry width="50" height="50" relative="1" as="geometry">
                        <mxPoint x="-40" y="340" as="sourcePoint"/>
                        <mxPoint x="580" y="370" as="targetPoint"/>
                        <Array as="points">
                            <mxPoint x="100" y="348"/>
                            <mxPoint x="100" y="260"/>
                            <mxPoint x="580" y="260"/>
                            <mxPoint x="580" y="348"/>
                        </Array>
                    </mxGeometry>
                </mxCell>
                <mxCell id="312" value="" style="endArrow=classic;html=1;fontSize=20;strokeWidth=3;fillColor=#1ba1e2;strokeColor=#006EAF;" parent="1" edge="1">
                    <mxGeometry width="50" height="50" relative="1" as="geometry">
                        <mxPoint x="340" y="740" as="sourcePoint"/>
                        <mxPoint x="340" y="840" as="targetPoint"/>
                    </mxGeometry>
                </mxCell>
                <mxCell id="313" value="" style="endArrow=classic;html=1;fontSize=20;strokeWidth=3;fillColor=#008a00;strokeColor=#005700;" parent="1" edge="1">
                    <mxGeometry width="50" height="50" relative="1" as="geometry">
                        <mxPoint x="340" y="499.5" as="sourcePoint"/>
                        <mxPoint x="340" y="600" as="targetPoint"/>
                    </mxGeometry>
                </mxCell>
                <mxCell id="314" value="" style="endArrow=classic;html=1;fontSize=20;strokeWidth=3;fillColor=#a20025;strokeColor=#6F0000;" parent="1" edge="1">
                    <mxGeometry width="50" height="50" relative="1" as="geometry">
                        <mxPoint x="340" y="260" as="sourcePoint"/>
                        <mxPoint x="340" y="370" as="targetPoint"/>
                    </mxGeometry>
                </mxCell>
                <mxCell id="315" value="" style="endArrow=classic;html=1;fontSize=20;strokeWidth=3;fillColor=#a20025;strokeColor=#6F0000;" parent="1" target="305" edge="1">
                    <mxGeometry width="50" height="50" relative="1" as="geometry">
                        <mxPoint x="60" y="348" as="sourcePoint"/>
                        <mxPoint x="80" y="180" as="targetPoint"/>
                    </mxGeometry>
                </mxCell>
                <mxCell id="316" value="" style="endArrow=classic;html=1;fontSize=20;strokeWidth=3;fillColor=#a20025;strokeColor=#6F0000;entryX=-0.003;entryY=0.137;entryDx=0;entryDy=0;entryPerimeter=0;" parent="1" target="86" edge="1">
                    <mxGeometry width="50" height="50" relative="1" as="geometry">
                        <mxPoint x="690" y="410" as="sourcePoint"/>
                        <mxPoint x="980" y="200" as="targetPoint"/>
                    </mxGeometry>
                </mxCell>
                <mxCell id="317" value="" style="endArrow=classic;html=1;fontSize=20;strokeWidth=3;fillColor=#a20025;strokeColor=#6F0000;entryX=-0.03;entryY=0.735;entryDx=0;entryDy=0;entryPerimeter=0;" parent="1" target="86" edge="1">
                    <mxGeometry width="50" height="50" relative="1" as="geometry">
                        <mxPoint x="210" y="399.5" as="sourcePoint"/>
                        <mxPoint x="210" y="549.5" as="targetPoint"/>
                    </mxGeometry>
                </mxCell>
                <mxCell id="320" value="" style="endArrow=classic;html=1;fontSize=20;fillColor=#008a00;strokeColor=#005700;strokeWidth=3;exitX=1.004;exitY=0.185;exitDx=0;exitDy=0;exitPerimeter=0;" parent="1" edge="1">
                    <mxGeometry width="50" height="50" relative="1" as="geometry">
                        <mxPoint x="-80.00000000000013" y="588" as="sourcePoint"/>
                        <mxPoint x="580" y="610" as="targetPoint"/>
                        <Array as="points">
                            <mxPoint x="99.52" y="588"/>
                            <mxPoint x="99.52" y="500"/>
                            <mxPoint x="579.52" y="500"/>
                            <mxPoint x="579.52" y="588"/>
                        </Array>
                    </mxGeometry>
                </mxCell>
                <mxCell id="321" value="" style="endArrow=classic;html=1;fontSize=20;fillColor=#1ba1e2;strokeColor=#006EAF;strokeWidth=3;exitX=1.004;exitY=0.185;exitDx=0;exitDy=0;exitPerimeter=0;" parent="1" edge="1">
                    <mxGeometry width="50" height="50" relative="1" as="geometry">
                        <mxPoint x="-80.00000000000013" y="828" as="sourcePoint"/>
                        <mxPoint x="580" y="850" as="targetPoint"/>
                        <Array as="points">
                            <mxPoint x="99.52" y="828"/>
                            <mxPoint x="99.52" y="740"/>
                            <mxPoint x="579.52" y="740"/>
                            <mxPoint x="579.52" y="828"/>
                        </Array>
                    </mxGeometry>
                </mxCell>
                <mxCell id="322" value="" style="ellipse;whiteSpace=wrap;html=1;aspect=fixed;fontSize=20;" parent="1" vertex="1">
                    <mxGeometry x="420" y="1090" width="30" height="30" as="geometry"/>
                </mxCell>
                <mxCell id="323" value="" style="ellipse;whiteSpace=wrap;html=1;aspect=fixed;fontSize=20;fillColor=#a20025;fontColor=#ffffff;strokeColor=#6F0000;" parent="1" vertex="1">
                    <mxGeometry x="670" y="1090" width="30" height="30" as="geometry"/>
                </mxCell>
                <mxCell id="324" value="" style="ellipse;whiteSpace=wrap;html=1;aspect=fixed;fontSize=20;fillColor=#a20025;fontColor=#ffffff;strokeColor=#6F0000;" parent="1" vertex="1">
                    <mxGeometry x="190" y="1090" width="30" height="30" as="geometry"/>
                </mxCell>
                <mxCell id="325" value="" style="ellipse;whiteSpace=wrap;html=1;aspect=fixed;fontSize=20;fillColor=#1ba1e2;fontColor=#ffffff;strokeColor=#006EAF;" parent="1" vertex="1">
                    <mxGeometry x="-120" y="825" width="30" height="30" as="geometry"/>
                </mxCell>
                <mxCell id="326" value="" style="ellipse;whiteSpace=wrap;html=1;aspect=fixed;fontSize=20;fillColor=#008a00;fontColor=#ffffff;strokeColor=#005700;" parent="1" vertex="1">
                    <mxGeometry x="-120" y="590.5" width="30" height="30" as="geometry"/>
                </mxCell>
                <mxCell id="327" value="" style="ellipse;whiteSpace=wrap;html=1;aspect=fixed;fontSize=20;fillColor=#a20025;fontColor=#ffffff;strokeColor=#6F0000;" parent="1" vertex="1">
                    <mxGeometry x="-120" y="350.5" width="30" height="30" as="geometry"/>
                </mxCell>
                <mxCell id="329" value="" style="whiteSpace=wrap;html=1;aspect=fixed;rounded=0;connectable=0;" parent="1" vertex="1">
                    <mxGeometry x="40" y="1600" width="240" height="240" as="geometry"/>
                </mxCell>
                <mxCell id="330" value="" style="whiteSpace=wrap;html=1;aspect=fixed;rounded=0;connectable=0;" parent="1" vertex="1">
                    <mxGeometry x="520" y="2080" width="240" height="240" as="geometry"/>
                </mxCell>
                <mxCell id="331" value="" style="whiteSpace=wrap;html=1;aspect=fixed;rounded=0;connectable=0;" parent="1" vertex="1">
                    <mxGeometry x="280" y="2080" width="240" height="240" as="geometry"/>
                </mxCell>
                <mxCell id="332" value="" style="whiteSpace=wrap;html=1;aspect=fixed;rounded=0;connectable=0;" parent="1" vertex="1">
                    <mxGeometry x="40" y="2080" width="240" height="240" as="geometry"/>
                </mxCell>
                <mxCell id="333" value="" style="whiteSpace=wrap;html=1;aspect=fixed;rounded=0;connectable=0;" parent="1" vertex="1">
                    <mxGeometry x="40" y="1840" width="240" height="240" as="geometry"/>
                </mxCell>
                <mxCell id="334" value="" style="whiteSpace=wrap;html=1;aspect=fixed;rounded=0;connectable=0;" parent="1" vertex="1">
                    <mxGeometry x="280" y="1840" width="240" height="240" as="geometry"/>
                </mxCell>
                <mxCell id="335" value="" style="whiteSpace=wrap;html=1;aspect=fixed;rounded=0;connectable=0;" parent="1" vertex="1">
                    <mxGeometry x="520" y="1840" width="240" height="240" as="geometry"/>
                </mxCell>
                <mxCell id="336" value="" style="whiteSpace=wrap;html=1;aspect=fixed;rounded=0;connectable=0;" parent="1" vertex="1">
                    <mxGeometry x="520" y="1600" width="240" height="240" as="geometry"/>
                </mxCell>
                <mxCell id="337" value="" style="whiteSpace=wrap;html=1;aspect=fixed;rounded=0;connectable=0;" parent="1" vertex="1">
                    <mxGeometry x="280" y="1600" width="240" height="240" as="geometry"/>
                </mxCell>
                <mxCell id="338" value="" style="pointerEvents=1;verticalLabelPosition=bottom;shadow=0;dashed=0;align=center;html=1;verticalAlign=top;shape=mxgraph.electrical.electro-mechanical.switch_disconnector;" parent="1" vertex="1">
                    <mxGeometry x="122.5" y="1710.5" width="75" height="19" as="geometry"/>
                </mxCell>
                <mxCell id="339" value="" style="pointerEvents=1;verticalLabelPosition=bottom;shadow=0;dashed=0;align=center;html=1;verticalAlign=top;shape=mxgraph.electrical.electro-mechanical.switch_disconnector;" parent="1" vertex="1">
                    <mxGeometry x="602.5" y="1710.5" width="75" height="19" as="geometry"/>
                </mxCell>
                <mxCell id="340" value="" style="pointerEvents=1;verticalLabelPosition=bottom;shadow=0;dashed=0;align=center;html=1;verticalAlign=top;shape=mxgraph.electrical.electro-mechanical.switch_disconnector;" parent="1" vertex="1">
                    <mxGeometry x="362.5" y="1710.5" width="75" height="19" as="geometry"/>
                </mxCell>
                <mxCell id="341" value="" style="endArrow=none;html=1;entryX=0;entryY=0.845;entryDx=0;entryDy=0;entryPerimeter=0;" parent="1" target="338" edge="1">
                    <mxGeometry width="50" height="50" relative="1" as="geometry">
                        <mxPoint x="-80" y="1727" as="sourcePoint"/>
                        <mxPoint x="440" y="1970" as="targetPoint"/>
                    </mxGeometry>
                </mxCell>
                <mxCell id="342" value="" style="endArrow=none;html=1;entryX=0;entryY=0.845;entryDx=0;entryDy=0;entryPerimeter=0;exitX=0;exitY=0.845;exitDx=0;exitDy=0;exitPerimeter=0;" parent="1" source="339" target="338" edge="1">
                    <mxGeometry width="50" height="50" relative="1" as="geometry">
                        <mxPoint x="660" y="1640" as="sourcePoint"/>
                        <mxPoint x="430" y="1790" as="targetPoint"/>
                        <Array as="points">
                            <mxPoint x="603" y="1640"/>
                            <mxPoint x="123" y="1640"/>
                        </Array>
                    </mxGeometry>
                </mxCell>
                <mxCell id="343" value="" style="endArrow=none;html=1;entryX=0;entryY=0.845;entryDx=0;entryDy=0;entryPerimeter=0;" parent="1" target="340" edge="1">
                    <mxGeometry width="50" height="50" relative="1" as="geometry">
                        <mxPoint x="290" y="1640" as="sourcePoint"/>
                        <mxPoint x="410" y="1760" as="targetPoint"/>
                        <Array as="points">
                            <mxPoint x="363" y="1640"/>
                        </Array>
                    </mxGeometry>
                </mxCell>
                <mxCell id="344" value="" style="endArrow=none;html=1;entryX=1;entryY=0.845;entryDx=0;entryDy=0;entryPerimeter=0;" parent="1" target="338" edge="1">
                    <mxGeometry width="50" height="50" relative="1" as="geometry">
                        <mxPoint x="198" y="1870" as="sourcePoint"/>
                        <mxPoint x="430" y="1880" as="targetPoint"/>
                    </mxGeometry>
                </mxCell>
                <mxCell id="345" value="" style="pointerEvents=1;verticalLabelPosition=bottom;shadow=0;dashed=0;align=center;html=1;verticalAlign=top;shape=mxgraph.electrical.electro-mechanical.switch_disconnector;" parent="1" vertex="1">
                    <mxGeometry x="122.5" y="1950.5" width="75" height="19" as="geometry"/>
                </mxCell>
                <mxCell id="346" value="" style="pointerEvents=1;verticalLabelPosition=bottom;shadow=0;dashed=0;align=center;html=1;verticalAlign=top;shape=mxgraph.electrical.electro-mechanical.switch_disconnector;" parent="1" vertex="1">
                    <mxGeometry x="602.5" y="1950.5" width="75" height="19" as="geometry"/>
                </mxCell>
                <mxCell id="347" value="" style="pointerEvents=1;verticalLabelPosition=bottom;shadow=0;dashed=0;align=center;html=1;verticalAlign=top;shape=mxgraph.electrical.electro-mechanical.switch_disconnector;" parent="1" vertex="1">
                    <mxGeometry x="362.5" y="1950.5" width="75" height="19" as="geometry"/>
                </mxCell>
                <mxCell id="348" value="" style="endArrow=none;html=1;entryX=0;entryY=0.845;entryDx=0;entryDy=0;entryPerimeter=0;" parent="1" target="345" edge="1">
                    <mxGeometry width="50" height="50" relative="1" as="geometry">
                        <mxPoint x="-80" y="1967" as="sourcePoint"/>
                        <mxPoint x="440" y="2210" as="targetPoint"/>
                    </mxGeometry>
                </mxCell>
                <mxCell id="349" value="" style="endArrow=none;html=1;entryX=0;entryY=0.845;entryDx=0;entryDy=0;entryPerimeter=0;exitX=0;exitY=0.845;exitDx=0;exitDy=0;exitPerimeter=0;" parent="1" source="346" target="345" edge="1">
                    <mxGeometry width="50" height="50" relative="1" as="geometry">
                        <mxPoint x="660" y="1880" as="sourcePoint"/>
                        <mxPoint x="430" y="2030" as="targetPoint"/>
                        <Array as="points">
                            <mxPoint x="603" y="1880"/>
                            <mxPoint x="123" y="1880"/>
                        </Array>
                    </mxGeometry>
                </mxCell>
                <mxCell id="350" value="" style="endArrow=none;html=1;entryX=0;entryY=0.845;entryDx=0;entryDy=0;entryPerimeter=0;" parent="1" target="347" edge="1">
                    <mxGeometry width="50" height="50" relative="1" as="geometry">
                        <mxPoint x="290" y="1880" as="sourcePoint"/>
                        <mxPoint x="410" y="2000" as="targetPoint"/>
                        <Array as="points">
                            <mxPoint x="363" y="1880"/>
                        </Array>
                    </mxGeometry>
                </mxCell>
                <mxCell id="351" value="" style="endArrow=none;html=1;entryX=0;entryY=0.845;entryDx=0;entryDy=0;entryPerimeter=0;" parent="1" target="352" edge="1">
                    <mxGeometry width="50" height="50" relative="1" as="geometry">
                        <mxPoint x="-80" y="1967" as="sourcePoint"/>
                        <mxPoint x="440" y="2210" as="targetPoint"/>
                    </mxGeometry>
                </mxCell>
                <mxCell id="352" value="" style="pointerEvents=1;verticalLabelPosition=bottom;shadow=0;dashed=0;align=center;html=1;verticalAlign=top;shape=mxgraph.electrical.electro-mechanical.switch_disconnector;" parent="1" vertex="1">
                    <mxGeometry x="122.5" y="1950.5" width="75" height="19" as="geometry"/>
                </mxCell>
                <mxCell id="353" value="" style="pointerEvents=1;verticalLabelPosition=bottom;shadow=0;dashed=0;align=center;html=1;verticalAlign=top;shape=mxgraph.electrical.electro-mechanical.switch_disconnector;" parent="1" vertex="1">
                    <mxGeometry x="602.5" y="2190.5" width="75" height="19" as="geometry"/>
                </mxCell>
                <mxCell id="354" value="" style="pointerEvents=1;verticalLabelPosition=bottom;shadow=0;dashed=0;align=center;html=1;verticalAlign=top;shape=mxgraph.electrical.electro-mechanical.switch_disconnector;" parent="1" vertex="1">
                    <mxGeometry x="362.5" y="2190.5" width="75" height="19" as="geometry"/>
                </mxCell>
                <mxCell id="355" value="" style="endArrow=none;html=1;entryX=0;entryY=0.845;entryDx=0;entryDy=0;entryPerimeter=0;exitX=0;exitY=0.845;exitDx=0;exitDy=0;exitPerimeter=0;" parent="1" source="353" edge="1">
                    <mxGeometry width="50" height="50" relative="1" as="geometry">
                        <mxPoint x="660" y="2120" as="sourcePoint"/>
                        <mxPoint x="122.5" y="2206.5550000000003" as="targetPoint"/>
                        <Array as="points">
                            <mxPoint x="603" y="2120"/>
                            <mxPoint x="123" y="2120"/>
                        </Array>
                    </mxGeometry>
                </mxCell>
                <mxCell id="356" value="" style="endArrow=none;html=1;entryX=0;entryY=0.845;entryDx=0;entryDy=0;entryPerimeter=0;" parent="1" target="354" edge="1">
                    <mxGeometry width="50" height="50" relative="1" as="geometry">
                        <mxPoint x="290" y="2120" as="sourcePoint"/>
                        <mxPoint x="410" y="2240" as="targetPoint"/>
                        <Array as="points">
                            <mxPoint x="363" y="2120"/>
                        </Array>
                    </mxGeometry>
                </mxCell>
                <mxCell id="357" value="" style="endArrow=none;html=1;entryX=0;entryY=0.845;entryDx=0;entryDy=0;entryPerimeter=0;" parent="1" target="358" edge="1">
                    <mxGeometry width="50" height="50" relative="1" as="geometry">
                        <mxPoint x="-80" y="2207" as="sourcePoint"/>
                        <mxPoint x="440" y="2450" as="targetPoint"/>
                    </mxGeometry>
                </mxCell>
                <mxCell id="358" value="" style="pointerEvents=1;verticalLabelPosition=bottom;shadow=0;dashed=0;align=center;html=1;verticalAlign=top;shape=mxgraph.electrical.electro-mechanical.switch_disconnector;" parent="1" vertex="1">
                    <mxGeometry x="122.5" y="2190.5" width="75" height="19" as="geometry"/>
                </mxCell>
                <mxCell id="359" value="" style="endArrow=none;html=1;exitX=1;exitY=0.845;exitDx=0;exitDy=0;exitPerimeter=0;" parent="1" source="352" edge="1">
                    <mxGeometry width="50" height="50" relative="1" as="geometry">
                        <mxPoint x="410" y="2040" as="sourcePoint"/>
                        <mxPoint x="198" y="1890" as="targetPoint"/>
                    </mxGeometry>
                </mxCell>
                <mxCell id="360" value="" style="endArrow=none;html=1;entryX=1;entryY=0.845;entryDx=0;entryDy=0;entryPerimeter=0;" parent="1" edge="1">
                    <mxGeometry width="50" height="50" relative="1" as="geometry">
                        <mxPoint x="438" y="1873.4400000000005" as="sourcePoint"/>
                        <mxPoint x="437.5" y="1729.995" as="targetPoint"/>
                    </mxGeometry>
                </mxCell>
                <mxCell id="361" value="" style="endArrow=none;html=1;exitX=1;exitY=0.845;exitDx=0;exitDy=0;exitPerimeter=0;" parent="1" source="347" edge="1">
                    <mxGeometry width="50" height="50" relative="1" as="geometry">
                        <mxPoint x="460" y="1960" as="sourcePoint"/>
                        <mxPoint x="438" y="1890" as="targetPoint"/>
                    </mxGeometry>
                </mxCell>
                <mxCell id="362" value="" style="endArrow=none;html=1;entryX=1;entryY=0.845;entryDx=0;entryDy=0;entryPerimeter=0;" parent="1" target="352" edge="1">
                    <mxGeometry width="50" height="50" relative="1" as="geometry">
                        <mxPoint x="198" y="2110" as="sourcePoint"/>
                        <mxPoint x="240" y="1970" as="targetPoint"/>
                    </mxGeometry>
                </mxCell>
                <mxCell id="363" value="" style="endArrow=none;html=1;exitX=1;exitY=0.845;exitDx=0;exitDy=0;exitPerimeter=0;" parent="1" source="358" edge="1">
                    <mxGeometry width="50" height="50" relative="1" as="geometry">
                        <mxPoint x="240" y="2200" as="sourcePoint"/>
                        <mxPoint x="197" y="2130" as="targetPoint"/>
                    </mxGeometry>
                </mxCell>
                <mxCell id="364" value="" style="endArrow=none;html=1;entryX=1;entryY=0.845;entryDx=0;entryDy=0;entryPerimeter=0;" parent="1" target="347" edge="1">
                    <mxGeometry width="50" height="50" relative="1" as="geometry">
                        <mxPoint x="437" y="2110" as="sourcePoint"/>
                        <mxPoint x="470" y="1990" as="targetPoint"/>
                    </mxGeometry>
                </mxCell>
                <mxCell id="365" value="" style="endArrow=none;html=1;exitX=1;exitY=0.845;exitDx=0;exitDy=0;exitPerimeter=0;" parent="1" source="354" edge="1">
                    <mxGeometry width="50" height="50" relative="1" as="geometry">
                        <mxPoint x="470" y="2200" as="sourcePoint"/>
                        <mxPoint x="437" y="2130" as="targetPoint"/>
                    </mxGeometry>
                </mxCell>
                <mxCell id="366" value="" style="endArrow=none;html=1;entryX=1;entryY=0.845;entryDx=0;entryDy=0;entryPerimeter=0;exitX=1;exitY=0.845;exitDx=0;exitDy=0;exitPerimeter=0;" parent="1" source="353" target="339" edge="1">
                    <mxGeometry width="50" height="50" relative="1" as="geometry">
                        <mxPoint x="500" y="2060" as="sourcePoint"/>
                        <mxPoint x="550" y="2010" as="targetPoint"/>
                    </mxGeometry>
                </mxCell>
                <mxCell id="367" value="" style="endArrow=none;html=1;exitX=1;exitY=0.845;exitDx=0;exitDy=0;exitPerimeter=0;" parent="1" source="358" edge="1">
                    <mxGeometry width="50" height="50" relative="1" as="geometry">
                        <mxPoint x="450" y="2110" as="sourcePoint"/>
                        <mxPoint x="198" y="2440" as="targetPoint"/>
                    </mxGeometry>
                </mxCell>
                <mxCell id="368" value="" style="endArrow=none;html=1;exitX=1;exitY=0.845;exitDx=0;exitDy=0;exitPerimeter=0;" parent="1" edge="1">
                    <mxGeometry width="50" height="50" relative="1" as="geometry">
                        <mxPoint x="437.5" y="2199.995000000001" as="sourcePoint"/>
                        <mxPoint x="438" y="2440" as="targetPoint"/>
                    </mxGeometry>
                </mxCell>
                <mxCell id="369" value="" style="endArrow=none;html=1;exitX=1;exitY=0.845;exitDx=0;exitDy=0;exitPerimeter=0;" parent="1" edge="1">
                    <mxGeometry width="50" height="50" relative="1" as="geometry">
                        <mxPoint x="677.5" y="2199.995000000001" as="sourcePoint"/>
                        <mxPoint x="678" y="2440" as="targetPoint"/>
                    </mxGeometry>
                </mxCell>
                <mxCell id="370" value="" style="rounded=0;whiteSpace=wrap;html=1;" parent="1" vertex="1">
                    <mxGeometry x="-200" y="1560" width="120" height="800" as="geometry"/>
                </mxCell>
                <mxCell id="371" value="" style="rounded=0;whiteSpace=wrap;html=1;rotation=90;" parent="1" vertex="1">
                    <mxGeometry x="340" y="2100" width="120" height="800" as="geometry"/>
                </mxCell>
                <mxCell id="372" value="The problem with this method is that it doesn't have a way to segregate one row from the next. In the example to the left, a &quot;ghost&quot; piece erroneously appears in the middle of the green row; uh-oh! This happens because green current can travel trough the red row from the piece on the right of the green row." style="text;html=1;strokeColor=none;fillColor=none;align=center;verticalAlign=middle;whiteSpace=wrap;rounded=0;fontSize=20;" parent="1" vertex="1">
                    <mxGeometry x="840" y="1600" width="370" height="670" as="geometry"/>
                </mxCell>
                <mxCell id="375" value="" style="endArrow=classic;html=1;fontSize=20;fillColor=#a20025;strokeColor=#6F0000;strokeWidth=3;exitX=1.004;exitY=0.185;exitDx=0;exitDy=0;exitPerimeter=0;entryX=0;entryY=0.5;entryDx=0;entryDy=0;" parent="1" source="370" target="392" edge="1">
                    <mxGeometry width="50" height="50" relative="1" as="geometry">
                        <mxPoint x="-40" y="1700" as="sourcePoint"/>
                        <mxPoint x="580" y="1730" as="targetPoint"/>
                        <Array as="points">
                            <mxPoint x="100" y="1708"/>
                            <mxPoint x="100" y="1620"/>
                            <mxPoint x="580" y="1620"/>
                            <mxPoint x="580" y="1708"/>
                        </Array>
                    </mxGeometry>
                </mxCell>
                <mxCell id="376" value="" style="endArrow=classic;html=1;fontSize=20;strokeWidth=3;fillColor=#1ba1e2;strokeColor=#006EAF;" parent="1" edge="1">
                    <mxGeometry width="50" height="50" relative="1" as="geometry">
                        <mxPoint x="340" y="2100" as="sourcePoint"/>
                        <mxPoint x="340" y="2200" as="targetPoint"/>
                    </mxGeometry>
                </mxCell>
                <mxCell id="377" value="" style="endArrow=classic;html=1;fontSize=20;strokeWidth=3;fillColor=#008a00;strokeColor=#005700;" parent="1" edge="1">
                    <mxGeometry width="50" height="50" relative="1" as="geometry">
                        <mxPoint x="340" y="1859.5" as="sourcePoint"/>
                        <mxPoint x="340" y="1960" as="targetPoint"/>
                    </mxGeometry>
                </mxCell>
                <mxCell id="378" value="" style="endArrow=classic;html=1;fontSize=20;strokeWidth=3;fillColor=#a20025;strokeColor=#6F0000;entryX=0;entryY=0.5;entryDx=0;entryDy=0;" parent="1" target="391" edge="1">
                    <mxGeometry width="50" height="50" relative="1" as="geometry">
                        <mxPoint x="340" y="1620" as="sourcePoint"/>
                        <mxPoint x="340" y="1730" as="targetPoint"/>
                        <Array as="points">
                            <mxPoint x="340" y="1710"/>
                        </Array>
                    </mxGeometry>
                </mxCell>
                <mxCell id="382" value="" style="endArrow=classic;html=1;fontSize=20;fillColor=#008a00;strokeColor=#005700;strokeWidth=3;exitX=1.004;exitY=0.185;exitDx=0;exitDy=0;exitPerimeter=0;entryX=0;entryY=0.5;entryDx=0;entryDy=0;" parent="1" target="393" edge="1">
                    <mxGeometry width="50" height="50" relative="1" as="geometry">
                        <mxPoint x="-80" y="1948" as="sourcePoint"/>
                        <mxPoint x="580" y="1970" as="targetPoint"/>
                        <Array as="points">
                            <mxPoint x="99.52" y="1948"/>
                            <mxPoint x="99.52" y="1860"/>
                            <mxPoint x="579.52" y="1860"/>
                            <mxPoint x="579.52" y="1948"/>
                        </Array>
                    </mxGeometry>
                </mxCell>
                <mxCell id="383" value="" style="endArrow=classic;html=1;fontSize=20;fillColor=#1ba1e2;strokeColor=#006EAF;strokeWidth=3;exitX=1.004;exitY=0.185;exitDx=0;exitDy=0;exitPerimeter=0;" parent="1" edge="1">
                    <mxGeometry width="50" height="50" relative="1" as="geometry">
                        <mxPoint x="-80" y="2188" as="sourcePoint"/>
                        <mxPoint x="580" y="2210" as="targetPoint"/>
                        <Array as="points">
                            <mxPoint x="99.52" y="2188"/>
                            <mxPoint x="99.52" y="2100"/>
                            <mxPoint x="579.52" y="2100"/>
                            <mxPoint x="579.52" y="2188"/>
                        </Array>
                    </mxGeometry>
                </mxCell>
                <mxCell id="387" value="" style="ellipse;whiteSpace=wrap;html=1;aspect=fixed;fontSize=20;fillColor=#1ba1e2;fontColor=#ffffff;strokeColor=#006EAF;" parent="1" vertex="1">
                    <mxGeometry x="-120" y="2185" width="30" height="30" as="geometry"/>
                </mxCell>
                <mxCell id="388" value="" style="ellipse;whiteSpace=wrap;html=1;aspect=fixed;fontSize=20;fillColor=#008a00;fontColor=#ffffff;strokeColor=#005700;" parent="1" vertex="1">
                    <mxGeometry x="-120" y="1950.5" width="30" height="30" as="geometry"/>
                </mxCell>
                <mxCell id="389" value="" style="ellipse;whiteSpace=wrap;html=1;aspect=fixed;fontSize=20;fillColor=#a20025;fontColor=#ffffff;strokeColor=#6F0000;" parent="1" vertex="1">
                    <mxGeometry x="-120" y="1710.5" width="30" height="30" as="geometry"/>
                </mxCell>
                <mxCell id="391" value="" style="ellipse;whiteSpace=wrap;html=1;aspect=fixed;fontSize=20;" parent="1" vertex="1">
                    <mxGeometry x="380" y="1685.5" width="80" height="80" as="geometry"/>
                </mxCell>
                <mxCell id="392" value="" style="ellipse;whiteSpace=wrap;html=1;aspect=fixed;fontSize=20;" parent="1" vertex="1">
                    <mxGeometry x="620" y="1685.5" width="80" height="80" as="geometry"/>
                </mxCell>
                <mxCell id="393" value="" style="ellipse;whiteSpace=wrap;html=1;aspect=fixed;fontSize=20;" parent="1" vertex="1">
                    <mxGeometry x="620" y="1925.5" width="80" height="80" as="geometry"/>
                </mxCell>
                <mxCell id="394" value="" style="endArrow=classic;html=1;fontSize=20;strokeWidth=3;fillColor=#a20025;strokeColor=#6F0000;entryX=-0.001;entryY=0.434;entryDx=0;entryDy=0;entryPerimeter=0;" parent="1" target="371" edge="1">
                    <mxGeometry width="50" height="50" relative="1" as="geometry">
                        <mxPoint x="450" y="1760" as="sourcePoint"/>
                        <mxPoint x="490" y="1865.5" as="targetPoint"/>
                        <Array as="points">
                            <mxPoint x="450" y="1850"/>
                        </Array>
                    </mxGeometry>
                </mxCell>
                <mxCell id="395" value="" style="endArrow=classic;html=1;fontSize=20;strokeWidth=3;fillColor=#a20025;strokeColor=#6F0000;entryX=-0.001;entryY=0.434;entryDx=0;entryDy=0;entryPerimeter=0;" parent="1" edge="1">
                    <mxGeometry width="50" height="50" relative="1" as="geometry">
                        <mxPoint x="690" y="1760" as="sourcePoint"/>
                        <mxPoint x="692.8000000000002" y="2439.8799999999997" as="targetPoint"/>
                        <Array as="points">
                            <mxPoint x="690" y="1850"/>
                        </Array>
                    </mxGeometry>
                </mxCell>
                <mxCell id="396" value="" style="endArrow=classic;html=1;fontSize=20;strokeWidth=3;fillColor=#008a00;strokeColor=#005700;entryX=-0.001;entryY=0.122;entryDx=0;entryDy=0;entryPerimeter=0;" parent="1" target="371" edge="1">
                    <mxGeometry width="50" height="50" relative="1" as="geometry">
                        <mxPoint x="700" y="1999.5" as="sourcePoint"/>
                        <mxPoint x="700" y="2100" as="targetPoint"/>
                    </mxGeometry>
                </mxCell>
                <mxCell id="397" value="" style="ellipse;whiteSpace=wrap;html=1;aspect=fixed;fontSize=20;fillColor=#a20025;fontColor=#ffffff;strokeColor=#6F0000;" parent="1" vertex="1">
                    <mxGeometry x="420" y="2450" width="30" height="30" as="geometry"/>
                </mxCell>
                <mxCell id="398" value="" style="ellipse;whiteSpace=wrap;html=1;aspect=fixed;fontSize=20;fillColor=#a20025;fontColor=#ffffff;strokeColor=#6F0000;" parent="1" vertex="1">
                    <mxGeometry x="670" y="2450" width="30" height="30" as="geometry"/>
                </mxCell>
                <mxCell id="399" value="" style="ellipse;whiteSpace=wrap;html=1;aspect=fixed;fontSize=20;fillColor=#008a00;fontColor=#ffffff;strokeColor=#005700;" parent="1" vertex="1">
                    <mxGeometry x="670" y="2490" width="30" height="30" as="geometry"/>
                </mxCell>
                <mxCell id="400" value="" style="endArrow=classic;html=1;fontSize=20;strokeWidth=3;fillColor=#008a00;strokeColor=#005700;" parent="1" edge="1">
                    <mxGeometry width="50" height="50" relative="1" as="geometry">
                        <mxPoint x="700" y="1950.5" as="sourcePoint"/>
                        <mxPoint x="700" y="1740.5" as="targetPoint"/>
                    </mxGeometry>
                </mxCell>
                <mxCell id="401" value="" style="endArrow=classic;html=1;fontSize=20;strokeWidth=3;fillColor=#008a00;strokeColor=#005700;exitX=0.063;exitY=0.295;exitDx=0;exitDy=0;exitPerimeter=0;entryX=0;entryY=0.5;entryDx=0;entryDy=0;" parent="1" source="392" target="391" edge="1">
                    <mxGeometry width="50" height="50" relative="1" as="geometry">
                        <mxPoint x="620" y="1630" as="sourcePoint"/>
                        <mxPoint x="620" y="1420" as="targetPoint"/>
                        <Array as="points">
                            <mxPoint x="560" y="1660"/>
                            <mxPoint x="380" y="1660"/>
                        </Array>
                    </mxGeometry>
                </mxCell>
                <mxCell id="402" value="" style="endArrow=classic;html=1;fontSize=20;strokeWidth=3;fillColor=#008a00;strokeColor=#005700;entryX=-0.035;entryY=0.419;entryDx=0;entryDy=0;entryPerimeter=0;" parent="1" target="371" edge="1">
                    <mxGeometry width="50" height="50" relative="1" as="geometry">
                        <mxPoint x="460" y="1760" as="sourcePoint"/>
                        <mxPoint x="460.0000000000001" y="2190.5" as="targetPoint"/>
                    </mxGeometry>
                </mxCell>
                <mxCell id="403" value="" style="ellipse;whiteSpace=wrap;html=1;aspect=fixed;fontSize=20;fillColor=#008a00;fontColor=#ffffff;strokeColor=#005700;" parent="1" vertex="1">
                    <mxGeometry x="420" y="2490" width="30" height="30" as="geometry"/>
                </mxCell>
                <mxCell id="404" value="" style="ellipse;whiteSpace=wrap;html=1;aspect=fixed;fontSize=20;" parent="1" vertex="1">
                    <mxGeometry x="180" y="2450" width="30" height="30" as="geometry"/>
                </mxCell>
                <mxCell id="405" value="OH NO!" style="text;html=1;strokeColor=none;fillColor=none;align=center;verticalAlign=middle;whiteSpace=wrap;rounded=0;fontSize=20;" parent="1" vertex="1">
                    <mxGeometry x="450" y="2490" width="90" height="30" as="geometry"/>
                </mxCell>
                <mxCell id="406" value="" style="whiteSpace=wrap;html=1;aspect=fixed;rounded=0;connectable=0;" parent="1" vertex="1">
                    <mxGeometry x="40" y="2960" width="240" height="240" as="geometry"/>
                </mxCell>
                <mxCell id="407" value="" style="whiteSpace=wrap;html=1;aspect=fixed;rounded=0;connectable=0;" parent="1" vertex="1">
                    <mxGeometry x="520" y="3440" width="240" height="240" as="geometry"/>
                </mxCell>
                <mxCell id="408" value="" style="whiteSpace=wrap;html=1;aspect=fixed;rounded=0;connectable=0;" parent="1" vertex="1">
                    <mxGeometry x="280" y="3440" width="240" height="240" as="geometry"/>
                </mxCell>
                <mxCell id="409" value="" style="whiteSpace=wrap;html=1;aspect=fixed;rounded=0;connectable=0;" parent="1" vertex="1">
                    <mxGeometry x="40" y="3440" width="240" height="240" as="geometry"/>
                </mxCell>
                <mxCell id="410" value="" style="whiteSpace=wrap;html=1;aspect=fixed;rounded=0;connectable=0;" parent="1" vertex="1">
                    <mxGeometry x="40" y="3200" width="240" height="240" as="geometry"/>
                </mxCell>
                <mxCell id="411" value="" style="whiteSpace=wrap;html=1;aspect=fixed;rounded=0;connectable=0;" parent="1" vertex="1">
                    <mxGeometry x="280" y="3200" width="240" height="240" as="geometry"/>
                </mxCell>
                <mxCell id="412" value="" style="whiteSpace=wrap;html=1;aspect=fixed;rounded=0;connectable=0;" parent="1" vertex="1">
                    <mxGeometry x="520" y="3200" width="240" height="240" as="geometry"/>
                </mxCell>
                <mxCell id="413" value="" style="whiteSpace=wrap;html=1;aspect=fixed;rounded=0;connectable=0;" parent="1" vertex="1">
                    <mxGeometry x="520" y="2960" width="240" height="240" as="geometry"/>
                </mxCell>
                <mxCell id="414" value="" style="whiteSpace=wrap;html=1;aspect=fixed;rounded=0;connectable=0;" parent="1" vertex="1">
                    <mxGeometry x="280" y="2960" width="240" height="240" as="geometry"/>
                </mxCell>
                <mxCell id="415" value="" style="pointerEvents=1;verticalLabelPosition=bottom;shadow=0;dashed=0;align=center;html=1;verticalAlign=top;shape=mxgraph.electrical.electro-mechanical.switch_disconnector;" parent="1" vertex="1">
                    <mxGeometry x="122.5" y="3070.5" width="75" height="19" as="geometry"/>
                </mxCell>
                <mxCell id="416" value="" style="pointerEvents=1;verticalLabelPosition=bottom;shadow=0;dashed=0;align=center;html=1;verticalAlign=top;shape=mxgraph.electrical.electro-mechanical.switch_disconnector;" parent="1" vertex="1">
                    <mxGeometry x="602.5" y="3070.5" width="75" height="19" as="geometry"/>
                </mxCell>
                <mxCell id="417" value="" style="pointerEvents=1;verticalLabelPosition=bottom;shadow=0;dashed=0;align=center;html=1;verticalAlign=top;shape=mxgraph.electrical.electro-mechanical.switch_disconnector;" parent="1" vertex="1">
                    <mxGeometry x="362.5" y="3070.5" width="75" height="19" as="geometry"/>
                </mxCell>
                <mxCell id="418" value="" style="endArrow=none;html=1;entryX=0;entryY=0.845;entryDx=0;entryDy=0;entryPerimeter=0;" parent="1" target="415" edge="1">
                    <mxGeometry width="50" height="50" relative="1" as="geometry">
                        <mxPoint x="-80" y="3087" as="sourcePoint"/>
                        <mxPoint x="440" y="3330" as="targetPoint"/>
                    </mxGeometry>
                </mxCell>
                <mxCell id="419" value="" style="endArrow=none;html=1;entryX=0;entryY=0.845;entryDx=0;entryDy=0;entryPerimeter=0;exitX=0;exitY=0.845;exitDx=0;exitDy=0;exitPerimeter=0;" parent="1" source="416" target="415" edge="1">
                    <mxGeometry width="50" height="50" relative="1" as="geometry">
                        <mxPoint x="660" y="3000" as="sourcePoint"/>
                        <mxPoint x="430" y="3150" as="targetPoint"/>
                        <Array as="points">
                            <mxPoint x="603" y="3000"/>
                            <mxPoint x="123" y="3000"/>
                        </Array>
                    </mxGeometry>
                </mxCell>
                <mxCell id="420" value="" style="endArrow=none;html=1;entryX=0;entryY=0.845;entryDx=0;entryDy=0;entryPerimeter=0;" parent="1" target="417" edge="1">
                    <mxGeometry width="50" height="50" relative="1" as="geometry">
                        <mxPoint x="290" y="3000" as="sourcePoint"/>
                        <mxPoint x="410" y="3120" as="targetPoint"/>
                        <Array as="points">
                            <mxPoint x="363" y="3000"/>
                        </Array>
                    </mxGeometry>
                </mxCell>
                <mxCell id="421" value="" style="endArrow=none;html=1;entryX=1;entryY=0.845;entryDx=0;entryDy=0;entryPerimeter=0;" parent="1" target="415" edge="1">
                    <mxGeometry width="50" height="50" relative="1" as="geometry">
                        <mxPoint x="198" y="3230" as="sourcePoint"/>
                        <mxPoint x="430" y="3240" as="targetPoint"/>
                    </mxGeometry>
                </mxCell>
                <mxCell id="422" value="" style="pointerEvents=1;verticalLabelPosition=bottom;shadow=0;dashed=0;align=center;html=1;verticalAlign=top;shape=mxgraph.electrical.electro-mechanical.switch_disconnector;" parent="1" vertex="1">
                    <mxGeometry x="122.5" y="3310.5" width="75" height="19" as="geometry"/>
                </mxCell>
                <mxCell id="423" value="" style="pointerEvents=1;verticalLabelPosition=bottom;shadow=0;dashed=0;align=center;html=1;verticalAlign=top;shape=mxgraph.electrical.electro-mechanical.switch_disconnector;" parent="1" vertex="1">
                    <mxGeometry x="602.5" y="3310.5" width="75" height="19" as="geometry"/>
                </mxCell>
                <mxCell id="424" value="" style="pointerEvents=1;verticalLabelPosition=bottom;shadow=0;dashed=0;align=center;html=1;verticalAlign=top;shape=mxgraph.electrical.electro-mechanical.switch_disconnector;" parent="1" vertex="1">
                    <mxGeometry x="362.5" y="3310.5" width="75" height="19" as="geometry"/>
                </mxCell>
                <mxCell id="425" value="" style="endArrow=none;html=1;entryX=0;entryY=0.845;entryDx=0;entryDy=0;entryPerimeter=0;" parent="1" target="422" edge="1">
                    <mxGeometry width="50" height="50" relative="1" as="geometry">
                        <mxPoint x="-80" y="3327" as="sourcePoint"/>
                        <mxPoint x="440" y="3570" as="targetPoint"/>
                    </mxGeometry>
                </mxCell>
                <mxCell id="426" value="" style="endArrow=none;html=1;entryX=0;entryY=0.845;entryDx=0;entryDy=0;entryPerimeter=0;exitX=0;exitY=0.845;exitDx=0;exitDy=0;exitPerimeter=0;" parent="1" source="423" target="422" edge="1">
                    <mxGeometry width="50" height="50" relative="1" as="geometry">
                        <mxPoint x="660" y="3240" as="sourcePoint"/>
                        <mxPoint x="430" y="3390" as="targetPoint"/>
                        <Array as="points">
                            <mxPoint x="603" y="3240"/>
                            <mxPoint x="123" y="3240"/>
                        </Array>
                    </mxGeometry>
                </mxCell>
                <mxCell id="427" value="" style="endArrow=none;html=1;entryX=0;entryY=0.845;entryDx=0;entryDy=0;entryPerimeter=0;" parent="1" target="424" edge="1">
                    <mxGeometry width="50" height="50" relative="1" as="geometry">
                        <mxPoint x="290" y="3240" as="sourcePoint"/>
                        <mxPoint x="410" y="3360" as="targetPoint"/>
                        <Array as="points">
                            <mxPoint x="363" y="3240"/>
                        </Array>
                    </mxGeometry>
                </mxCell>
                <mxCell id="428" value="" style="endArrow=none;html=1;entryX=0;entryY=0.845;entryDx=0;entryDy=0;entryPerimeter=0;" parent="1" target="429" edge="1">
                    <mxGeometry width="50" height="50" relative="1" as="geometry">
                        <mxPoint x="-80" y="3327" as="sourcePoint"/>
                        <mxPoint x="440" y="3570" as="targetPoint"/>
                    </mxGeometry>
                </mxCell>
                <mxCell id="429" value="" style="pointerEvents=1;verticalLabelPosition=bottom;shadow=0;dashed=0;align=center;html=1;verticalAlign=top;shape=mxgraph.electrical.electro-mechanical.switch_disconnector;" parent="1" vertex="1">
                    <mxGeometry x="122.5" y="3310.5" width="75" height="19" as="geometry"/>
                </mxCell>
                <mxCell id="430" value="" style="pointerEvents=1;verticalLabelPosition=bottom;shadow=0;dashed=0;align=center;html=1;verticalAlign=top;shape=mxgraph.electrical.electro-mechanical.switch_disconnector;" parent="1" vertex="1">
                    <mxGeometry x="602.5" y="3550.5" width="75" height="19" as="geometry"/>
                </mxCell>
                <mxCell id="431" value="" style="pointerEvents=1;verticalLabelPosition=bottom;shadow=0;dashed=0;align=center;html=1;verticalAlign=top;shape=mxgraph.electrical.electro-mechanical.switch_disconnector;" parent="1" vertex="1">
                    <mxGeometry x="362.5" y="3550.5" width="75" height="19" as="geometry"/>
                </mxCell>
                <mxCell id="432" value="" style="endArrow=none;html=1;entryX=0;entryY=0.845;entryDx=0;entryDy=0;entryPerimeter=0;exitX=0;exitY=0.845;exitDx=0;exitDy=0;exitPerimeter=0;" parent="1" source="430" edge="1">
                    <mxGeometry width="50" height="50" relative="1" as="geometry">
                        <mxPoint x="660" y="3480" as="sourcePoint"/>
                        <mxPoint x="122.5" y="3566.5550000000003" as="targetPoint"/>
                        <Array as="points">
                            <mxPoint x="603" y="3480"/>
                            <mxPoint x="123" y="3480"/>
                        </Array>
                    </mxGeometry>
                </mxCell>
                <mxCell id="433" value="" style="endArrow=none;html=1;entryX=0;entryY=0.845;entryDx=0;entryDy=0;entryPerimeter=0;" parent="1" target="431" edge="1">
                    <mxGeometry width="50" height="50" relative="1" as="geometry">
                        <mxPoint x="290" y="3480" as="sourcePoint"/>
                        <mxPoint x="410" y="3600" as="targetPoint"/>
                        <Array as="points">
                            <mxPoint x="363" y="3480"/>
                        </Array>
                    </mxGeometry>
                </mxCell>
                <mxCell id="434" value="" style="endArrow=none;html=1;entryX=0;entryY=0.845;entryDx=0;entryDy=0;entryPerimeter=0;" parent="1" target="435" edge="1">
                    <mxGeometry width="50" height="50" relative="1" as="geometry">
                        <mxPoint x="-80" y="3567" as="sourcePoint"/>
                        <mxPoint x="440" y="3810" as="targetPoint"/>
                    </mxGeometry>
                </mxCell>
                <mxCell id="435" value="" style="pointerEvents=1;verticalLabelPosition=bottom;shadow=0;dashed=0;align=center;html=1;verticalAlign=top;shape=mxgraph.electrical.electro-mechanical.switch_disconnector;" parent="1" vertex="1">
                    <mxGeometry x="122.5" y="3550.5" width="75" height="19" as="geometry"/>
                </mxCell>
                <mxCell id="436" value="" style="endArrow=none;html=1;exitX=1;exitY=0.845;exitDx=0;exitDy=0;exitPerimeter=0;" parent="1" source="429" edge="1">
                    <mxGeometry width="50" height="50" relative="1" as="geometry">
                        <mxPoint x="410" y="3400" as="sourcePoint"/>
                        <mxPoint x="198" y="3250" as="targetPoint"/>
                    </mxGeometry>
                </mxCell>
                <mxCell id="437" value="" style="endArrow=none;html=1;entryX=1;entryY=0.845;entryDx=0;entryDy=0;entryPerimeter=0;" parent="1" edge="1">
                    <mxGeometry width="50" height="50" relative="1" as="geometry">
                        <mxPoint x="438" y="3233.4400000000005" as="sourcePoint"/>
                        <mxPoint x="437.5" y="3089.995" as="targetPoint"/>
                    </mxGeometry>
                </mxCell>
                <mxCell id="438" value="" style="endArrow=none;html=1;exitX=1;exitY=0.845;exitDx=0;exitDy=0;exitPerimeter=0;" parent="1" source="424" edge="1">
                    <mxGeometry width="50" height="50" relative="1" as="geometry">
                        <mxPoint x="460" y="3320" as="sourcePoint"/>
                        <mxPoint x="438" y="3250" as="targetPoint"/>
                    </mxGeometry>
                </mxCell>
                <mxCell id="439" value="" style="endArrow=none;html=1;entryX=1;entryY=0.845;entryDx=0;entryDy=0;entryPerimeter=0;" parent="1" target="429" edge="1">
                    <mxGeometry width="50" height="50" relative="1" as="geometry">
                        <mxPoint x="198" y="3470" as="sourcePoint"/>
                        <mxPoint x="240" y="3330" as="targetPoint"/>
                    </mxGeometry>
                </mxCell>
                <mxCell id="440" value="" style="endArrow=none;html=1;exitX=1;exitY=0.845;exitDx=0;exitDy=0;exitPerimeter=0;" parent="1" source="435" edge="1">
                    <mxGeometry width="50" height="50" relative="1" as="geometry">
                        <mxPoint x="240" y="3560" as="sourcePoint"/>
                        <mxPoint x="197" y="3490" as="targetPoint"/>
                    </mxGeometry>
                </mxCell>
                <mxCell id="441" value="" style="endArrow=none;html=1;entryX=1;entryY=0.845;entryDx=0;entryDy=0;entryPerimeter=0;" parent="1" target="424" edge="1">
                    <mxGeometry width="50" height="50" relative="1" as="geometry">
                        <mxPoint x="437" y="3470" as="sourcePoint"/>
                        <mxPoint x="470" y="3350" as="targetPoint"/>
                    </mxGeometry>
                </mxCell>
                <mxCell id="442" value="" style="endArrow=none;html=1;exitX=1;exitY=0.845;exitDx=0;exitDy=0;exitPerimeter=0;" parent="1" source="431" edge="1">
                    <mxGeometry width="50" height="50" relative="1" as="geometry">
                        <mxPoint x="470" y="3560" as="sourcePoint"/>
                        <mxPoint x="437" y="3490" as="targetPoint"/>
                    </mxGeometry>
                </mxCell>
                <mxCell id="443" value="" style="endArrow=none;html=1;entryX=1;entryY=0.845;entryDx=0;entryDy=0;entryPerimeter=0;exitX=1;exitY=0.845;exitDx=0;exitDy=0;exitPerimeter=0;" parent="1" source="430" target="416" edge="1">
                    <mxGeometry width="50" height="50" relative="1" as="geometry">
                        <mxPoint x="500" y="3420" as="sourcePoint"/>
                        <mxPoint x="550" y="3370" as="targetPoint"/>
                    </mxGeometry>
                </mxCell>
                <mxCell id="444" value="" style="endArrow=none;html=1;exitX=1;exitY=0.845;exitDx=0;exitDy=0;exitPerimeter=0;" parent="1" source="435" edge="1">
                    <mxGeometry width="50" height="50" relative="1" as="geometry">
                        <mxPoint x="450" y="3470" as="sourcePoint"/>
                        <mxPoint x="198" y="3800" as="targetPoint"/>
                    </mxGeometry>
                </mxCell>
                <mxCell id="445" value="" style="endArrow=none;html=1;exitX=1;exitY=0.845;exitDx=0;exitDy=0;exitPerimeter=0;" parent="1" edge="1">
                    <mxGeometry width="50" height="50" relative="1" as="geometry">
                        <mxPoint x="437.5" y="3559.995000000001" as="sourcePoint"/>
                        <mxPoint x="438" y="3800" as="targetPoint"/>
                    </mxGeometry>
                </mxCell>
                <mxCell id="446" value="" style="endArrow=none;html=1;exitX=1;exitY=0.845;exitDx=0;exitDy=0;exitPerimeter=0;" parent="1" edge="1">
                    <mxGeometry width="50" height="50" relative="1" as="geometry">
                        <mxPoint x="677.5" y="3559.995000000001" as="sourcePoint"/>
                        <mxPoint x="678" y="3800" as="targetPoint"/>
                    </mxGeometry>
                </mxCell>
                <mxCell id="447" value="" style="rounded=0;whiteSpace=wrap;html=1;" parent="1" vertex="1">
                    <mxGeometry x="-200" y="2920" width="120" height="800" as="geometry"/>
                </mxCell>
                <mxCell id="448" value="" style="rounded=0;whiteSpace=wrap;html=1;rotation=90;" parent="1" vertex="1">
                    <mxGeometry x="340" y="3460" width="120" height="800" as="geometry"/>
                </mxCell>
                <mxCell id="449" value="There's good news though! Diodes exist. Diodes only allow current to flow one way through them. By strategically adding diodes to our circuit we can prevent current from flowing to where we don't want it!" style="text;html=1;strokeColor=none;fillColor=none;align=center;verticalAlign=middle;whiteSpace=wrap;rounded=0;fontSize=20;" parent="1" vertex="1">
                    <mxGeometry x="840" y="2960" width="370" height="670" as="geometry"/>
                </mxCell>
                <mxCell id="450" value="" style="endArrow=classic;html=1;fontSize=20;fillColor=#a20025;strokeColor=#6F0000;strokeWidth=3;exitX=1.004;exitY=0.185;exitDx=0;exitDy=0;exitPerimeter=0;entryX=0;entryY=0.5;entryDx=0;entryDy=0;" parent="1" source="447" target="460" edge="1">
                    <mxGeometry width="50" height="50" relative="1" as="geometry">
                        <mxPoint x="-40" y="3060" as="sourcePoint"/>
                        <mxPoint x="580" y="3090" as="targetPoint"/>
                        <Array as="points">
                            <mxPoint x="100" y="3068"/>
                            <mxPoint x="100" y="2980"/>
                            <mxPoint x="580" y="2980"/>
                            <mxPoint x="580" y="3068"/>
                        </Array>
                    </mxGeometry>
                </mxCell>
                <mxCell id="451" value="" style="endArrow=classic;html=1;fontSize=20;strokeWidth=3;fillColor=#1ba1e2;strokeColor=#006EAF;" parent="1" edge="1">
                    <mxGeometry width="50" height="50" relative="1" as="geometry">
                        <mxPoint x="340" y="3460" as="sourcePoint"/>
                        <mxPoint x="340" y="3560" as="targetPoint"/>
                    </mxGeometry>
                </mxCell>
                <mxCell id="452" value="" style="endArrow=classic;html=1;fontSize=20;strokeWidth=3;fillColor=#008a00;strokeColor=#005700;" parent="1" edge="1">
                    <mxGeometry width="50" height="50" relative="1" as="geometry">
                        <mxPoint x="340" y="3219.5" as="sourcePoint"/>
                        <mxPoint x="340" y="3320" as="targetPoint"/>
                    </mxGeometry>
                </mxCell>
                <mxCell id="453" value="" style="endArrow=classic;html=1;fontSize=20;strokeWidth=3;fillColor=#a20025;strokeColor=#6F0000;entryX=0;entryY=0.5;entryDx=0;entryDy=0;" parent="1" target="459" edge="1">
                    <mxGeometry width="50" height="50" relative="1" as="geometry">
                        <mxPoint x="340" y="2980" as="sourcePoint"/>
                        <mxPoint x="340" y="3090" as="targetPoint"/>
                        <Array as="points">
                            <mxPoint x="340" y="3070"/>
                        </Array>
                    </mxGeometry>
                </mxCell>
                <mxCell id="454" value="" style="endArrow=classic;html=1;fontSize=20;fillColor=#008a00;strokeColor=#005700;strokeWidth=3;exitX=1.004;exitY=0.185;exitDx=0;exitDy=0;exitPerimeter=0;entryX=0;entryY=0.5;entryDx=0;entryDy=0;" parent="1" target="461" edge="1">
                    <mxGeometry width="50" height="50" relative="1" as="geometry">
                        <mxPoint x="-80" y="3308" as="sourcePoint"/>
                        <mxPoint x="580" y="3330" as="targetPoint"/>
                        <Array as="points">
                            <mxPoint x="99.52" y="3308"/>
                            <mxPoint x="99.52" y="3220"/>
                            <mxPoint x="579.52" y="3220"/>
                            <mxPoint x="579.52" y="3308"/>
                        </Array>
                    </mxGeometry>
                </mxCell>
                <mxCell id="455" value="" style="endArrow=classic;html=1;fontSize=20;fillColor=#1ba1e2;strokeColor=#006EAF;strokeWidth=3;exitX=1.004;exitY=0.185;exitDx=0;exitDy=0;exitPerimeter=0;" parent="1" edge="1">
                    <mxGeometry width="50" height="50" relative="1" as="geometry">
                        <mxPoint x="-80" y="3548" as="sourcePoint"/>
                        <mxPoint x="580" y="3570" as="targetPoint"/>
                        <Array as="points">
                            <mxPoint x="99.52" y="3548"/>
                            <mxPoint x="99.52" y="3460"/>
                            <mxPoint x="579.52" y="3460"/>
                            <mxPoint x="579.52" y="3548"/>
                        </Array>
                    </mxGeometry>
                </mxCell>
                <mxCell id="456" value="" style="ellipse;whiteSpace=wrap;html=1;aspect=fixed;fontSize=20;fillColor=#1ba1e2;fontColor=#ffffff;strokeColor=#006EAF;" parent="1" vertex="1">
                    <mxGeometry x="-120" y="3545" width="30" height="30" as="geometry"/>
                </mxCell>
                <mxCell id="457" value="" style="ellipse;whiteSpace=wrap;html=1;aspect=fixed;fontSize=20;fillColor=#008a00;fontColor=#ffffff;strokeColor=#005700;" parent="1" vertex="1">
                    <mxGeometry x="-120" y="3310.5" width="30" height="30" as="geometry"/>
                </mxCell>
                <mxCell id="458" value="" style="ellipse;whiteSpace=wrap;html=1;aspect=fixed;fontSize=20;fillColor=#a20025;fontColor=#ffffff;strokeColor=#6F0000;" parent="1" vertex="1">
                    <mxGeometry x="-120" y="3070.5" width="30" height="30" as="geometry"/>
                </mxCell>
                <mxCell id="459" value="" style="ellipse;whiteSpace=wrap;html=1;aspect=fixed;fontSize=20;" parent="1" vertex="1">
                    <mxGeometry x="380" y="3045.5" width="80" height="80" as="geometry"/>
                </mxCell>
                <mxCell id="460" value="" style="ellipse;whiteSpace=wrap;html=1;aspect=fixed;fontSize=20;" parent="1" vertex="1">
                    <mxGeometry x="620" y="3045.5" width="80" height="80" as="geometry"/>
                </mxCell>
                <mxCell id="461" value="" style="ellipse;whiteSpace=wrap;html=1;aspect=fixed;fontSize=20;" parent="1" vertex="1">
                    <mxGeometry x="620" y="3285.5" width="80" height="80" as="geometry"/>
                </mxCell>
                <mxCell id="462" value="" style="endArrow=classic;html=1;fontSize=20;strokeWidth=3;fillColor=#a20025;strokeColor=#6F0000;entryX=-0.001;entryY=0.434;entryDx=0;entryDy=0;entryPerimeter=0;" parent="1" target="448" edge="1">
                    <mxGeometry width="50" height="50" relative="1" as="geometry">
                        <mxPoint x="450" y="3120" as="sourcePoint"/>
                        <mxPoint x="490" y="3225.5" as="targetPoint"/>
                        <Array as="points">
                            <mxPoint x="450" y="3210"/>
                        </Array>
                    </mxGeometry>
                </mxCell>
                <mxCell id="463" value="" style="endArrow=classic;html=1;fontSize=20;strokeWidth=3;fillColor=#a20025;strokeColor=#6F0000;entryX=-0.001;entryY=0.434;entryDx=0;entryDy=0;entryPerimeter=0;" parent="1" edge="1">
                    <mxGeometry width="50" height="50" relative="1" as="geometry">
                        <mxPoint x="690" y="3120" as="sourcePoint"/>
                        <mxPoint x="692.8000000000002" y="3799.879999999999" as="targetPoint"/>
                        <Array as="points">
                            <mxPoint x="690" y="3210"/>
                        </Array>
                    </mxGeometry>
                </mxCell>
                <mxCell id="464" value="" style="endArrow=classic;html=1;fontSize=20;strokeWidth=3;fillColor=#008a00;strokeColor=#005700;entryX=-0.001;entryY=0.122;entryDx=0;entryDy=0;entryPerimeter=0;" parent="1" target="448" edge="1">
                    <mxGeometry width="50" height="50" relative="1" as="geometry">
                        <mxPoint x="700" y="3359.5" as="sourcePoint"/>
                        <mxPoint x="700" y="3460" as="targetPoint"/>
                    </mxGeometry>
                </mxCell>
                <mxCell id="465" value="" style="ellipse;whiteSpace=wrap;html=1;aspect=fixed;fontSize=20;fillColor=#a20025;fontColor=#ffffff;strokeColor=#6F0000;" parent="1" vertex="1">
                    <mxGeometry x="420" y="3810" width="30" height="30" as="geometry"/>
                </mxCell>
                <mxCell id="466" value="" style="ellipse;whiteSpace=wrap;html=1;aspect=fixed;fontSize=20;fillColor=#a20025;fontColor=#ffffff;strokeColor=#6F0000;" parent="1" vertex="1">
                    <mxGeometry x="670" y="3810" width="30" height="30" as="geometry"/>
                </mxCell>
                <mxCell id="467" value="" style="ellipse;whiteSpace=wrap;html=1;aspect=fixed;fontSize=20;fillColor=#008a00;fontColor=#ffffff;strokeColor=#005700;" parent="1" vertex="1">
                    <mxGeometry x="670" y="3850" width="30" height="30" as="geometry"/>
                </mxCell>
                <mxCell id="468" value="" style="endArrow=classic;html=1;fontSize=20;strokeWidth=3;fillColor=#008a00;strokeColor=#005700;" parent="1" edge="1">
                    <mxGeometry width="50" height="50" relative="1" as="geometry">
                        <mxPoint x="700" y="3310.5" as="sourcePoint"/>
                        <mxPoint x="700" y="3200" as="targetPoint"/>
                    </mxGeometry>
                </mxCell>
                <mxCell id="472" value="" style="ellipse;whiteSpace=wrap;html=1;aspect=fixed;fontSize=20;" parent="1" vertex="1">
                    <mxGeometry x="180" y="3810" width="30" height="30" as="geometry"/>
                </mxCell>
                <mxCell id="474" value="" style="pointerEvents=1;fillColor=strokeColor;verticalLabelPosition=bottom;shadow=0;dashed=0;align=center;html=1;verticalAlign=top;shape=mxgraph.electrical.diodes.diode;fontSize=20;rotation=90;connectable=0;" parent="1" vertex="1">
                    <mxGeometry x="650" y="3640" width="50" height="31" as="geometry"/>
                </mxCell>
                <mxCell id="475" value="" style="pointerEvents=1;fillColor=strokeColor;verticalLabelPosition=bottom;shadow=0;dashed=0;align=center;html=1;verticalAlign=top;shape=mxgraph.electrical.diodes.diode;fontSize=20;rotation=90;connectable=0;" parent="1" vertex="1">
                    <mxGeometry x="410" y="3640" width="50" height="31" as="geometry"/>
                </mxCell>
                <mxCell id="476" value="" style="pointerEvents=1;fillColor=strokeColor;verticalLabelPosition=bottom;shadow=0;dashed=0;align=center;html=1;verticalAlign=top;shape=mxgraph.electrical.diodes.diode;fontSize=20;rotation=90;connectable=0;" parent="1" vertex="1">
                    <mxGeometry x="170" y="3640" width="50" height="31" as="geometry"/>
                </mxCell>
                <mxCell id="477" value="" style="pointerEvents=1;fillColor=strokeColor;verticalLabelPosition=bottom;shadow=0;dashed=0;align=center;html=1;verticalAlign=top;shape=mxgraph.electrical.diodes.diode;fontSize=20;rotation=90;connectable=0;" parent="1" vertex="1">
                    <mxGeometry x="650" y="3400" width="50" height="31" as="geometry"/>
                </mxCell>
                <mxCell id="478" value="" style="pointerEvents=1;fillColor=strokeColor;verticalLabelPosition=bottom;shadow=0;dashed=0;align=center;html=1;verticalAlign=top;shape=mxgraph.electrical.diodes.diode;fontSize=20;rotation=90;connectable=0;" parent="1" vertex="1">
                    <mxGeometry x="410" y="3400" width="50" height="31" as="geometry"/>
                </mxCell>
                <mxCell id="479" value="" style="pointerEvents=1;fillColor=strokeColor;verticalLabelPosition=bottom;shadow=0;dashed=0;align=center;html=1;verticalAlign=top;shape=mxgraph.electrical.diodes.diode;fontSize=20;rotation=90;connectable=0;" parent="1" vertex="1">
                    <mxGeometry x="170" y="3400" width="50" height="31" as="geometry"/>
                </mxCell>
                <mxCell id="480" value="" style="pointerEvents=1;fillColor=strokeColor;verticalLabelPosition=bottom;shadow=0;dashed=0;align=center;html=1;verticalAlign=top;shape=mxgraph.electrical.diodes.diode;fontSize=20;rotation=90;connectable=0;" parent="1" vertex="1">
                    <mxGeometry x="650" y="3160" width="50" height="31" as="geometry"/>
                </mxCell>
                <mxCell id="481" value="" style="pointerEvents=1;fillColor=strokeColor;verticalLabelPosition=bottom;shadow=0;dashed=0;align=center;html=1;verticalAlign=top;shape=mxgraph.electrical.diodes.diode;fontSize=20;rotation=90;connectable=0;" parent="1" vertex="1">
                    <mxGeometry x="410" y="3160" width="50" height="31" as="geometry"/>
                </mxCell>
                <mxCell id="482" value="" style="pointerEvents=1;fillColor=strokeColor;verticalLabelPosition=bottom;shadow=0;dashed=0;align=center;html=1;verticalAlign=top;shape=mxgraph.electrical.diodes.diode;fontSize=20;rotation=90;connectable=0;" parent="1" vertex="1">
                    <mxGeometry x="170" y="3160" width="50" height="31" as="geometry"/>
                </mxCell>
                <mxCell id="483" value="Power Pins" style="text;html=1;strokeColor=none;fillColor=none;align=center;verticalAlign=middle;whiteSpace=wrap;rounded=0;rotation=-90;fontStyle=1" vertex="1" parent="1">
                    <mxGeometry x="-585" y="3305" width="800" height="30" as="geometry"/>
                </mxCell>
                <mxCell id="484" value="Output Pins" style="text;html=1;strokeColor=none;fillColor=none;align=center;verticalAlign=middle;whiteSpace=wrap;rounded=0;fontStyle=1" vertex="1" parent="1">
                    <mxGeometry y="3890" width="800" height="30" as="geometry"/>
                </mxCell>
            </root>
        </mxGraphModel>
    </diagram>
</mxfile>